<mxfile host="65bd71144e">
    <diagram id="C5RBs43oDa-KdzZeNtuy" name="Page-1">
        <mxGraphModel dx="700" dy="1779" grid="1" gridSize="10" guides="1" tooltips="1" connect="1" arrows="1" fold="1" page="1" pageScale="1" pageWidth="827" pageHeight="1169" math="0" shadow="0">
            <root>
                <mxCell id="WIyWlLk6GJQsqaUBKTNV-0"/>
                <mxCell id="WIyWlLk6GJQsqaUBKTNV-1" parent="WIyWlLk6GJQsqaUBKTNV-0"/>
                <mxCell id="3rd-GjIYUOIh24kx_syC-8" value="model" style="shape=folder;fontStyle=1;spacingTop=10;tabWidth=40;tabHeight=14;tabPosition=left;movable=1;resizable=1;rotatable=1;deletable=1;editable=1;locked=0;connectable=1;labelBorderColor=none;whiteSpace=wrap;html=1;labelPosition=center;verticalLabelPosition=middle;align=left;verticalAlign=top;" parent="WIyWlLk6GJQsqaUBKTNV-1" vertex="1">
                    <mxGeometry x="40" y="-10" width="940" height="410" as="geometry"/>
                </mxCell>
                <mxCell id="3rd-GjIYUOIh24kx_syC-4" value="Menu&lt;br&gt;" style="swimlane;fontStyle=1;align=center;verticalAlign=top;childLayout=stackLayout;horizontal=1;startSize=26;horizontalStack=0;resizeParent=1;resizeParentMax=0;resizeLast=0;collapsible=1;marginBottom=0;whiteSpace=wrap;html=1;" parent="WIyWlLk6GJQsqaUBKTNV-1" vertex="1">
                    <mxGeometry x="60" y="40" width="430" height="160" as="geometry"/>
                </mxCell>
                <mxCell id="3rd-GjIYUOIh24kx_syC-5" value="+ menuNormal: menu&lt;br&gt;+ menuNone: menuNone&lt;br&gt;" style="text;strokeColor=none;fillColor=none;align=left;verticalAlign=top;spacingLeft=4;spacingRight=4;overflow=hidden;rotatable=0;points=[[0,0.5],[1,0.5]];portConstraint=eastwest;whiteSpace=wrap;html=1;" parent="3rd-GjIYUOIh24kx_syC-4" vertex="1">
                    <mxGeometry y="26" width="430" height="44" as="geometry"/>
                </mxCell>
                <mxCell id="3rd-GjIYUOIh24kx_syC-6" value="" style="line;strokeWidth=1;fillColor=none;align=left;verticalAlign=middle;spacingTop=-1;spacingLeft=3;spacingRight=3;rotatable=0;labelPosition=right;points=[];portConstraint=eastwest;strokeColor=inherit;" parent="3rd-GjIYUOIh24kx_syC-4" vertex="1">
                    <mxGeometry y="70" width="430" height="8" as="geometry"/>
                </mxCell>
                <mxCell id="3rd-GjIYUOIh24kx_syC-7" value="+ ativarMenu(Menu.menuNormal, Menu.menuNone )&lt;br&gt;+ desativarMenu(Menu.menuNormal, Menu.menuNone)" style="text;strokeColor=none;fillColor=none;align=left;verticalAlign=top;spacingLeft=4;spacingRight=4;overflow=hidden;rotatable=0;points=[[0,0.5],[1,0.5]];portConstraint=eastwest;whiteSpace=wrap;html=1;" parent="3rd-GjIYUOIh24kx_syC-4" vertex="1">
                    <mxGeometry y="78" width="430" height="82" as="geometry"/>
                </mxCell>
                <mxCell id="3rd-GjIYUOIh24kx_syC-10" value="view" style="shape=folder;fontStyle=1;spacingTop=10;tabWidth=40;tabHeight=14;tabPosition=left;movable=1;resizable=1;rotatable=1;deletable=1;editable=1;locked=0;connectable=1;labelBorderColor=none;whiteSpace=wrap;html=1;labelPosition=center;verticalLabelPosition=middle;align=left;verticalAlign=top;" parent="WIyWlLk6GJQsqaUBKTNV-1" vertex="1">
                    <mxGeometry x="540" y="420" width="630" height="310" as="geometry"/>
                </mxCell>
                <mxCell id="3rd-GjIYUOIh24kx_syC-11" value="controller" style="shape=folder;fontStyle=1;spacingTop=10;tabWidth=40;tabHeight=14;tabPosition=left;movable=1;resizable=1;rotatable=1;deletable=1;editable=1;locked=0;connectable=1;labelBorderColor=none;whiteSpace=wrap;html=1;labelPosition=center;verticalLabelPosition=middle;align=left;verticalAlign=top;" parent="WIyWlLk6GJQsqaUBKTNV-1" vertex="1">
                    <mxGeometry x="40" y="420" width="450" height="410" as="geometry"/>
                </mxCell>
                <mxCell id="3rd-GjIYUOIh24kx_syC-12" value="Jogador" style="swimlane;fontStyle=1;align=center;verticalAlign=top;childLayout=stackLayout;horizontal=1;startSize=26;horizontalStack=0;resizeParent=1;resizeParentMax=0;resizeLast=0;collapsible=1;marginBottom=0;whiteSpace=wrap;html=1;" parent="WIyWlLk6GJQsqaUBKTNV-1" vertex="1">
                    <mxGeometry x="500" y="40" width="420" height="104" as="geometry"/>
                </mxCell>
                <mxCell id="3rd-GjIYUOIh24kx_syC-13" value="+ nome : String&lt;br&gt;+ status: boolean" style="text;strokeColor=none;fillColor=none;align=left;verticalAlign=top;spacingLeft=4;spacingRight=4;overflow=hidden;rotatable=0;points=[[0,0.5],[1,0.5]];portConstraint=eastwest;whiteSpace=wrap;html=1;" parent="3rd-GjIYUOIh24kx_syC-12" vertex="1">
                    <mxGeometry y="26" width="420" height="44" as="geometry"/>
                </mxCell>
                <mxCell id="3rd-GjIYUOIh24kx_syC-14" value="" style="line;strokeWidth=1;fillColor=none;align=left;verticalAlign=middle;spacingTop=-1;spacingLeft=3;spacingRight=3;rotatable=0;labelPosition=right;points=[];portConstraint=eastwest;strokeColor=inherit;" parent="3rd-GjIYUOIh24kx_syC-12" vertex="1">
                    <mxGeometry y="70" width="420" height="8" as="geometry"/>
                </mxCell>
                <mxCell id="3rd-GjIYUOIh24kx_syC-15" value="+ method(type): type" style="text;strokeColor=none;fillColor=none;align=left;verticalAlign=top;spacingLeft=4;spacingRight=4;overflow=hidden;rotatable=0;points=[[0,0.5],[1,0.5]];portConstraint=eastwest;whiteSpace=wrap;html=1;" parent="3rd-GjIYUOIh24kx_syC-12" vertex="1">
                    <mxGeometry y="78" width="420" height="26" as="geometry"/>
                </mxCell>
                <mxCell id="3rd-GjIYUOIh24kx_syC-16" value="Administrador" style="swimlane;fontStyle=1;align=center;verticalAlign=top;childLayout=stackLayout;horizontal=1;startSize=26;horizontalStack=0;resizeParent=1;resizeParentMax=0;resizeLast=0;collapsible=1;marginBottom=0;whiteSpace=wrap;html=1;" parent="WIyWlLk6GJQsqaUBKTNV-1" vertex="1">
                    <mxGeometry x="80" y="220" width="160" height="104" as="geometry"/>
                </mxCell>
                <mxCell id="3rd-GjIYUOIh24kx_syC-17" value="+ login: String&lt;br&gt;+ senha: String" style="text;strokeColor=none;fillColor=none;align=left;verticalAlign=top;spacingLeft=4;spacingRight=4;overflow=hidden;rotatable=0;points=[[0,0.5],[1,0.5]];portConstraint=eastwest;whiteSpace=wrap;html=1;" parent="3rd-GjIYUOIh24kx_syC-16" vertex="1">
                    <mxGeometry y="26" width="160" height="44" as="geometry"/>
                </mxCell>
                <mxCell id="3rd-GjIYUOIh24kx_syC-18" value="" style="line;strokeWidth=1;fillColor=none;align=left;verticalAlign=middle;spacingTop=-1;spacingLeft=3;spacingRight=3;rotatable=0;labelPosition=right;points=[];portConstraint=eastwest;strokeColor=inherit;" parent="3rd-GjIYUOIh24kx_syC-16" vertex="1">
                    <mxGeometry y="70" width="160" height="8" as="geometry"/>
                </mxCell>
                <mxCell id="3rd-GjIYUOIh24kx_syC-19" value="+ method(type): type" style="text;strokeColor=none;fillColor=none;align=left;verticalAlign=top;spacingLeft=4;spacingRight=4;overflow=hidden;rotatable=0;points=[[0,0.5],[1,0.5]];portConstraint=eastwest;whiteSpace=wrap;html=1;" parent="3rd-GjIYUOIh24kx_syC-16" vertex="1">
                    <mxGeometry y="78" width="160" height="26" as="geometry"/>
                </mxCell>
                <mxCell id="3rd-GjIYUOIh24kx_syC-20" value="Navegador" style="swimlane;fontStyle=1;align=center;verticalAlign=top;childLayout=stackLayout;horizontal=1;startSize=26;horizontalStack=0;resizeParent=1;resizeParentMax=0;resizeLast=0;collapsible=1;marginBottom=0;whiteSpace=wrap;html=1;" parent="WIyWlLk6GJQsqaUBKTNV-1" vertex="1">
                    <mxGeometry x="270" y="210" width="160" height="160" as="geometry"/>
                </mxCell>
                <mxCell id="3rd-GjIYUOIh24kx_syC-21" value="+ imagens : Array()&lt;br&gt;+ tema: String&lt;br&gt;+ tempo: String" style="text;strokeColor=none;fillColor=none;align=left;verticalAlign=top;spacingLeft=4;spacingRight=4;overflow=hidden;rotatable=0;points=[[0,0.5],[1,0.5]];portConstraint=eastwest;whiteSpace=wrap;html=1;" parent="3rd-GjIYUOIh24kx_syC-20" vertex="1">
                    <mxGeometry y="26" width="160" height="64" as="geometry"/>
                </mxCell>
                <mxCell id="3rd-GjIYUOIh24kx_syC-22" value="" style="line;strokeWidth=1;fillColor=none;align=left;verticalAlign=middle;spacingTop=-1;spacingLeft=3;spacingRight=3;rotatable=0;labelPosition=right;points=[];portConstraint=eastwest;strokeColor=inherit;" parent="3rd-GjIYUOIh24kx_syC-20" vertex="1">
                    <mxGeometry y="90" width="160" height="8" as="geometry"/>
                </mxCell>
                <mxCell id="3rd-GjIYUOIh24kx_syC-23" value="+ adicionarImagens(img)&lt;br&gt;+ alterarTempo(String)&lt;br&gt;+ alterarTema(String)&lt;br&gt;&lt;br&gt;&amp;nbsp;" style="text;strokeColor=none;fillColor=none;align=left;verticalAlign=top;spacingLeft=4;spacingRight=4;overflow=hidden;rotatable=0;points=[[0,0.5],[1,0.5]];portConstraint=eastwest;whiteSpace=wrap;html=1;" parent="3rd-GjIYUOIh24kx_syC-20" vertex="1">
                    <mxGeometry y="98" width="160" height="62" as="geometry"/>
                </mxCell>
                <mxCell id="3rd-GjIYUOIh24kx_syC-24" value="Index" style="shape=umlBoundary;whiteSpace=wrap;html=1;" parent="WIyWlLk6GJQsqaUBKTNV-1" vertex="1">
                    <mxGeometry x="600" y="500" width="100" height="80" as="geometry"/>
                </mxCell>
                <mxCell id="3rd-GjIYUOIh24kx_syC-25" value="LoginAdminisrrador" style="shape=umlBoundary;whiteSpace=wrap;html=1;" parent="WIyWlLk6GJQsqaUBKTNV-1" vertex="1">
                    <mxGeometry x="750" y="500" width="200" height="80" as="geometry"/>
                </mxCell>
                <mxCell id="3rd-GjIYUOIh24kx_syC-26" value="JogoMemoria" style="shape=umlBoundary;whiteSpace=wrap;html=1;" parent="WIyWlLk6GJQsqaUBKTNV-1" vertex="1">
                    <mxGeometry x="583" y="600" width="100" height="80" as="geometry"/>
                </mxCell>
                <mxCell id="3rd-GjIYUOIh24kx_syC-27" value="FimJogo" style="shape=umlBoundary;whiteSpace=wrap;html=1;" parent="WIyWlLk6GJQsqaUBKTNV-1" vertex="1">
                    <mxGeometry x="700" y="600" width="100" height="80" as="geometry"/>
                </mxCell>
                <mxCell id="3rd-GjIYUOIh24kx_syC-29" value="ModoAdministrador" style="shape=umlBoundary;whiteSpace=wrap;html=1;" parent="WIyWlLk6GJQsqaUBKTNV-1" vertex="1">
                    <mxGeometry x="820" y="600" width="170" height="80" as="geometry"/>
                </mxCell>
                <mxCell id="3rd-GjIYUOIh24kx_syC-30" value="ConfigurarJogo" style="shape=umlBoundary;whiteSpace=wrap;html=1;" parent="WIyWlLk6GJQsqaUBKTNV-1" vertex="1">
                    <mxGeometry x="970" y="490" width="153" height="80" as="geometry"/>
                </mxCell>
                <mxCell id="3rd-GjIYUOIh24kx_syC-31" value="Index" style="ellipse;shape=umlControl;whiteSpace=wrap;html=1;" parent="WIyWlLk6GJQsqaUBKTNV-1" vertex="1">
                    <mxGeometry x="150" y="470" width="70" height="80" as="geometry"/>
                </mxCell>
                <mxCell id="3rd-GjIYUOIh24kx_syC-33" value="ConfigurarJogo" style="ellipse;shape=umlControl;whiteSpace=wrap;html=1;" parent="WIyWlLk6GJQsqaUBKTNV-1" vertex="1">
                    <mxGeometry x="80" y="560" width="120" height="80" as="geometry"/>
                </mxCell>
                <mxCell id="3rd-GjIYUOIh24kx_syC-34" value="ModoAdminsitrador" style="ellipse;shape=umlControl;whiteSpace=wrap;html=1;" parent="WIyWlLk6GJQsqaUBKTNV-1" vertex="1">
                    <mxGeometry x="70" y="670" width="140" height="80" as="geometry"/>
                </mxCell>
                <mxCell id="3rd-GjIYUOIh24kx_syC-36" value="JogoMemoria" style="ellipse;shape=umlControl;whiteSpace=wrap;html=1;" parent="WIyWlLk6GJQsqaUBKTNV-1" vertex="1">
                    <mxGeometry x="260" y="470" width="120" height="80" as="geometry"/>
                </mxCell>
                <mxCell id="3rd-GjIYUOIh24kx_syC-37" value="LoginAdministrador" style="ellipse;shape=umlControl;whiteSpace=wrap;html=1;" parent="WIyWlLk6GJQsqaUBKTNV-1" vertex="1">
                    <mxGeometry x="230" y="570" width="140" height="80" as="geometry"/>
                </mxCell>
                <mxCell id="3rd-GjIYUOIh24kx_syC-38" value="ConfigurarJogo" style="ellipse;shape=umlControl;whiteSpace=wrap;html=1;" parent="WIyWlLk6GJQsqaUBKTNV-1" vertex="1">
                    <mxGeometry x="260" y="660" width="130" height="80" as="geometry"/>
                </mxCell>
            </root>
        </mxGraphModel>
    </diagram>
</mxfile>